<?xml version="1.0" encoding="utf-8"?>
<!-- Generator: Adobe Illustrator 27.5.0, SVG Export Plug-In . SVG Version: 6.00 Build 0)  -->
<svg version="1.1" id="Layer_1" xmlns="http://www.w3.org/2000/svg" xmlns:xlink="http://www.w3.org/1999/xlink" x="0px" y="0px"
	 viewBox="0 0 450 450" style="enable-background:new 0 0 450 450;" xml:space="preserve">
<g>
	<g>
		<polygon style="opacity:0.3;" points="394.468,238.465 247.358,323.4 55.532,212.648 202.642,127.715 		"/>
		<polygon style="fill:#F2F2F2;" points="394.468,237.349 247.358,322.273 55.532,211.532 202.642,126.6 		"/>
		<polygon style="fill:#B5AFA7;" points="197.012,142.195 160.053,163.536 181.343,175.825 218.308,154.487 		"/>
		<polygon style="fill:#B5AFA7;" points="235.525,164.43 121.062,230.512 115.888,227.528 230.348,161.443 		"/>
		<polygon style="fill:#B5AFA7;" points="247.031,171.074 132.566,237.156 127.386,234.172 241.851,168.085 		"/>
		<polygon style="fill:#B5AFA7;" points="258.531,177.715 144.069,243.801 138.896,240.809 253.357,174.725 		"/>
		<polygon style="fill:#B5AFA7;" points="270.04,184.357 155.573,250.445 150.401,247.45 264.864,181.372 		"/>
		<polygon style="fill:#B5AFA7;" points="321.509,214.076 276.45,240.086 274.776,239.119 319.839,213.105 		"/>
		<g>
			<path style="fill:#6CB5C4;" d="M258.527,253.577l-16.055,2.482l-11.758,6.79l-4.301,9.272l4.305,9.268l11.751,6.782l16.062,2.49
				l16.055-2.49l11.756-6.782l4.309-9.268l-4.303-9.272l-11.758-6.79L258.527,253.577z M282.338,264.176l3.682,7.945l-3.682,7.934
				l-10.064,5.808l-13.743,2.123l-13.748-2.123l-10.061-5.808l-3.682-7.934l3.682-7.938l10.064-5.815l13.744-2.123l13.745,2.123
				L282.338,264.176z"/>
			<polygon style="fill:#6CB5C4;" points="251.66,265.245 246.625,268.156 244.786,272.122 246.625,276.083 251.66,278.988 
				258.527,280.056 265.4,278.988 270.431,276.083 272.273,272.122 270.431,268.149 265.404,265.245 258.527,264.184 			"/>
			<path style="fill:#6CB5C4;" d="M247.708,261.301l-7.918,4.569l-2.902,6.252l2.902,6.244l7.922,4.576l10.815,1.672l10.82-1.672
				l7.922-4.576l2.901-6.252l-2.897-6.244l-7.922-4.569l-10.824-1.676L247.708,261.301z M275.939,266.317l2.691,5.805l-2.695,5.794
				l-7.358,4.249l-10.05,1.559l-10.045-1.559l-7.358-4.249l-2.69-5.794l2.686-5.805l7.359-4.253l10.048-1.552l10.053,1.552
				L275.939,266.317z"/>
		</g>
		<polygon style="fill:#B5AFA7;" points="234.311,218.267 167.081,257.085 161.91,254.098 229.137,215.279 		"/>
	</g>
	<g>
		<polygon style="opacity:0.3;" points="175.826,294.522 147.332,278.068 175.826,261.621 204.318,278.068 		"/>
		<g>
			<polygon style="fill:#231F20;" points="204.698,238.588 200.456,238.548 200.456,249.74 202.611,254.05 204.698,252.844 			"/>
			<polygon style="fill:#414042;" points="202.611,239.791 173.623,223.046 173.623,237.305 202.611,254.05 			"/>
		</g>
		<g>
			<path style="fill:#857F79;" d="M171.831,222.021v39.531l26.908,15.535l0.922-7.582v-32.992L171.831,222.021z"/>
			<path style="fill:#D8D1C7;" d="M175.201,260.833l0.291,30.179l23.68-13.674v-29.993L175.201,260.833z M196.719,272.071
				l-1.824,3.173l-16.271,9.388l-1.83-1.054v-20.452l1.83-3.17l16.271-9.388l1.824,1.05V272.071z"/>
			<path style="fill:#D8D1C7;" d="M150.87,238.592v39.531l24.956,14.404l0.925-7.582v-32.992L150.87,238.592z"/>
			<g>
				<polygon style="fill:#A39C95;" points="164.753,281.507 164.753,282.775 161.792,281.059 161.792,249.423 162.893,250.059 
					163.477,279.206 				"/>
				<polygon style="fill:#E6E1DD;" points="164.753,251.135 164.753,281.507 162.893,280.438 162.893,250.059 				"/>
			</g>
			<path style="fill:#A39C95;" d="M175.826,253v39.527l24.825-14.335v-39.531L175.826,253z M198.203,272.929l-1.83,3.169
				l-16.271,9.389l-1.828-1.05V263.98l1.828-3.169l16.271-9.392l1.83,1.054V272.929z"/>
		</g>
		<polygon style="fill:#6D6E71;" points="146.714,206.094 152.458,196.152 157.042,199.214 153.007,208.25 		"/>
		<polygon style="fill:#6D6E71;" points="198.953,196.152 204.698,206.094 200.774,208.144 194.632,200.791 		"/>
		<rect x="168.133" y="210.699" style="fill:#6D6E71;" width="15.971" height="13.049"/>
		<polygon style="fill:#231F20;" points="204.698,206.094 198.953,202.792 192.511,204.066 181.471,212.899 175.7,222.839 
			172.864,242.296 175.7,255.333 204.698,238.588 		"/>
		<polygon style="fill:#231F20;" points="177.783,254.126 173.545,254.09 173.545,265.281 175.7,269.585 177.783,268.382 		"/>
		<polygon style="fill:#414042;" points="175.7,222.839 169.972,212.899 152.458,202.783 146.714,206.094 146.714,252.844 
			175.7,269.585 		"/>
		<g>
			<g>
				<polygon style="fill:#808285;" points="158.612,247.417 159.446,246.959 162.835,248.918 161.974,250.823 				"/>
				<polygon style="fill:#6D6E71;" points="161.974,249.376 162.835,248.918 165.221,253.029 164.366,257.423 				"/>
				<polygon style="fill:#231F20;" points="164.366,253.541 165.221,253.029 165.221,256.976 164.366,257.423 				"/>
				<polygon style="fill:#58595B;" points="161.974,258.884 164.366,257.423 164.366,253.541 161.974,249.376 158.612,247.417 
					156.151,248.86 156.151,252.724 158.612,256.864 				"/>
			</g>
			<g>
				<polygon style="fill:#FA5C52;" points="157.725,249.278 158.721,248.704 161.421,250.252 160.418,251.953 				"/>
				<polygon style="fill:#AB281F;" points="160.427,250.83 161.421,250.252 163.352,253.577 162.361,257.296 				"/>
				<polygon style="fill:#8A1C14;" points="162.361,254.163 163.352,253.577 163.352,256.689 162.361,257.296 				"/>
				<polygon style="fill:#C84030;" points="160.427,258.426 162.361,257.296 162.361,254.163 160.427,250.83 157.725,249.278 
					155.852,250.386 155.852,253.531 157.725,256.849 				"/>
			</g>
		</g>
		<polygon style="fill:#58595B;" points="198.953,202.792 198.953,196.152 181.471,186.051 169.972,186.051 152.458,196.152 
			152.458,202.792 169.972,212.899 181.471,212.899 		"/>
	</g>
</g>
</svg>
