<svg width="635" height="560" viewBox="0 0 635 560" fill="none" xmlns="http://www.w3.org/2000/svg">
<g clip-path="url(#clip0_401_2)">
<path d="M481.621 560L47.9955 255.606C33.208 245.247 21.1353 231.476 12.8002 215.46C4.46507 199.445 0.113159 181.656 0.113159 163.601C0.113159 145.546 4.46507 127.757 12.8002 111.742C21.1353 95.7261 33.208 81.9555 47.9955 71.5965L153.03 -1.78496L586.655 302.649C601.435 313.014 613.5 326.786 621.83 342.801C630.159 358.816 634.508 376.602 634.508 394.654C634.508 412.705 630.159 430.491 621.83 446.506C613.5 462.521 601.435 476.294 586.655 486.658L481.621 560ZM152.991 47.1625L71.1206 104.44C61.6035 111.099 53.8328 119.956 48.4677 130.258C43.1025 140.561 40.3011 152.005 40.3011 163.621C40.3011 175.237 43.1025 186.681 48.4677 196.984C53.8328 207.286 61.6035 216.143 71.1206 222.802L481.74 511.053L563.61 453.815C573.119 447.15 580.882 438.291 586.242 427.99C591.601 417.688 594.4 406.246 594.4 394.634C594.4 383.021 591.601 371.58 586.242 361.278C580.882 350.976 573.119 342.118 563.61 335.453L152.991 47.1625Z" fill="#4BC0C8"/>
<path d="M152.594 510.775L70.8429 453.379C61.3337 446.714 53.5705 437.855 48.2109 427.553C42.8512 417.252 40.053 405.81 40.053 394.197C40.053 382.585 42.8512 371.143 48.2109 360.842C53.5705 350.54 61.3337 341.681 70.8429 335.016L282.459 187.063L247.554 162.629L47.9558 302.173C33.1684 312.532 21.0956 326.303 12.7605 342.318C4.4254 358.334 0.0734863 376.123 0.0734863 394.178C0.0734863 412.232 4.4254 430.021 12.7605 446.037C21.0956 462.053 33.1684 475.823 47.9558 486.182L152.713 559.722L282.301 469.047L247.395 444.533L152.594 510.775Z" fill="#02819B"/>
<path d="M586.854 72.0329L482.057 -1.50729L352.35 89.2478L387.256 113.761L482.017 47.5988L563.808 104.995C573.317 111.66 581.08 120.519 586.44 130.82C591.8 141.122 594.598 152.564 594.598 164.176C594.598 175.789 591.8 187.23 586.44 197.532C581.08 207.834 573.317 216.692 563.808 223.357L352.152 371.191L387.058 395.705L586.695 256.042C601.483 245.683 613.555 231.912 621.89 215.897C630.225 199.881 634.577 182.092 634.577 164.037C634.577 145.983 630.225 128.194 621.89 112.178C613.555 96.1624 601.483 82.3918 586.695 72.0329H586.854Z" fill="#02819B"/>
<path d="M237.816 169.224L72.9104 284.606L95.9005 317.464L260.806 202.082L237.816 169.224Z" fill="#02819B"/>
<path d="M542.468 237.994L462.145 294.24L485.111 327.083L568.409 268.735C559.683 258.66 551.075 248.347 542.468 237.994Z" fill="#02819B"/>
</g>
<defs>
<clipPath id="clip0_401_2">
<rect width="634.651" height="560" fill="white"/>
</clipPath>
</defs>
</svg>
