<svg width="51" height="51" viewBox="0 0 51 51" fill="none" xmlns="http://www.w3.org/2000/svg">
<g clip-path="url(#clip0_1_1835)">
<path d="M49.7475 41.9819H1.47185C0.995776 41.9819 0.609741 41.5959 0.609741 41.1198V10.0854C0.609741 9.6093 0.995776 9.22327 1.47185 9.22327H49.7476C50.2237 9.22327 50.6097 9.6093 50.6097 10.0854V41.1198C50.6096 41.596 50.2236 41.9819 49.7475 41.9819Z" fill="#FF4B55"/>
<path d="M29.7065 27.7473L36.2918 22.9154H28.1366L25.6097 15.1383L23.0829 22.9154H14.9277L21.513 27.7473L19.0057 35.4642L25.6033 30.7485L25.6097 30.7531L25.6162 30.7485L32.2138 35.4642L29.7065 27.7473ZM31.0275 24.6396L29.1454 26.0205L28.6967 24.6396H31.0275ZM23.5379 27.0945L24.3356 24.6395H26.8839L27.6816 27.0945L25.6097 28.6148L23.5379 27.0945ZM25.6097 20.7182L26.3236 22.9154H24.8957L25.6097 20.7182ZM20.192 24.6396H22.5228L22.0741 26.0205L20.192 24.6396ZM22.2638 31.0158L22.9768 28.8213L24.14 29.6747L22.2638 31.0158ZM28.2427 28.8213L28.9558 31.0158L27.0797 29.6748L28.2427 28.8213Z" fill="#5A8250"/>
</g>
<defs>
<clipPath id="clip0_1_1835">
<rect width="50" height="50" fill="white" transform="translate(0.609375 0.602539)"/>
</clipPath>
</defs>
</svg>
